#!OML:ASF H:\ManfredETheater\Project 1\Capture day 1\Session 1\subject.ASF
:FULLY-SPECIFIED
:DEGREES
92
root -5.55522 16.3629 1.77257 -0.70944 -39.8411 16.5149
lowerback 16.4641 -2.08818 -7.92118
upperback 2.05536 -4.46816 -3.03011
thorax -6.66366 -2.0327 2.19341
lowerneck -18.7308 -1.27019 -4.41051
upperneck 8.29929 -1.16906 4.18477
head 5.5824 -0.393937 1.92486
rclavicle -1.42131e-014 -5.47652e-014
rhumerus -71.1671 2.63832 -88.0173
rradius 86.6871
rwrist -18.5065
rhand -32.3518 10.2028
rfingers 7.12502
rthumb -5.58837 -19.7036
lclavicle -1.42131e-014 -5.47652e-014
lhumerus -37.5639 -19.5782 97.769
lradius 127.225
lwrist 16.0575
lhand -16.4845 -10.1304
lfingers 7.12502
lthumb 9.7327 19.6247
rfemur -62.7898 -10.3933 24.7168
rtibia 55.9519
rfoot 1.03996 -6.47706
rtoes -13.8175
lfemur -5.61898 -8.61399 -22.1858
ltibia 55.3185
lfoot 10.9169 -18.0423
ltoes -0.888869
93
root -5.96627 16.3697 2.31256 -1.65314 -40.2537 16.8013
lowerback 16.262 -2.16366 -7.89746
upperback 2.22596 -4.53796 -3.10056
thorax -6.36982 -2.08635 2.10345
lowerneck -18.6784 -1.0854 -4.31994
upperneck 8.58919 -0.926899 4.0019
head 5.65383 -0.287397 1.87756
rclavicle 1.35571e-013 -6.34123e-014
rhumerus -71.7865 2.18124 -87.5774
rradius 86.958
rwrist -18.5135
rhand -32.2874 9.99934
rfingers 7.12502
rthumb -5.52626 -19.9086
lclavicle 1.35571e-013 -6.34123e-014
lhumerus -38.0432 -19.883 97.9779
lradius 128.05
lwrist 15.9996
lhand -16.4668 -10.278
lfingers 7.12502
lthumb 9.74979 19.4763
rfemur -61.6057 -10.4456 24.4783
rtibia 50.8035
rfoot 3.57641 -7.04306
rtoes -13.8724
lfemur -3.84822 -10.0485 -23.1098
ltibia 55.8291
lfoot 11.3913 -17.213
ltoes 1.17383
94
root -6.37564 16.3576 2.85192 -2.66294 -40.5591 17.1918
lowerback 16.0767 -2.2329 -7.93728
upperback 2.37106 -4.61487 -3.18087
thorax -6.10883 -2.13996 2.04068
lowerneck -18.5912 -0.92851 -4.24443
upperneck 8.87487 -0.712259 3.77187
head 5.72007 -0.199197 1.81476
rclavicle -1.41584e-013 -3.51849e-014
rhumerus -72.2309 1.76063 -87.1486
rradius 87.1898
rwrist -18.3123
rhand -32.2291 9.86727
rfingers 7.12502
rthumb -5.46989 -20.0421
lclavicle -1.41584e-013 -3.51849e-014
lhumerus -38.6219 -20.0502 98.2971
lradius 128.547
lwrist 15.9782
lhand -16.3663 -10.4245
lfingers 7.12502
lthumb 9.8468 19.3252
rfemur -60.4158 -10.548 24.0742
rtibia 46.3633
rfoot 6.03103 -7.40276
rtoes -14.7079
lfemur -2.42551 -11.3827 -24.1833
ltibia 56.964
lfoot 10.4539 -15.5546
ltoes 1.08744
95
root -6.78418 16.3295 3.38856 -3.67091 -40.7421 17.6042
lowerback 15.906 -2.29921 -8.00861
upperback 2.48652 -4.69486 -3.24403
thorax -5.88395 -2.19184 2.0152
lowerneck -18.4597 -0.805848 -4.19902
upperneck 9.14812 -0.532157 3.51049
head 5.77736 -0.132154 1.74309
rclavicle 1.11319e-014 -1.74931e-014
rhumerus -72.4957 1.38835 -86.7431
rradius 87.3862
rwrist -17.914
rhand -32.1838 9.79207
rfingers 7.12502
rthumb -5.42619 -20.1185
lclavicle 1.11319e-014 -1.74931e-014
lhumerus -39.2822 -20.0669 98.7231
lradius 128.694
lwrist 15.904
lhand -16.2221 -10.5727
lfingers 7.12502
lthumb 9.98585 19.1704
rfemur -59.2594 -10.681 23.5643
rtibia 42.7525
rfoot 8.27945 -7.58543
rtoes -16.1561
lfemur -1.4129 -12.4909 -25.235
ltibia 58.7013
lfoot 8.87353 -13.148
ltoes -0.277598
96
root -7.19188 16.2886 3.92065 -4.63145 -40.8532 17.9887
lowerback 15.7473 -2.34451 -8.11267
upperback 2.56774 -4.75247 -3.26848
thorax -5.69837 -2.22916 2.0457
lowerneck -18.2892 -0.717721 -4.18387
upperneck 9.40617 -0.387832 3.22477
head 5.82556 -0.0862709 1.66464
rclavicle 5.60076e-014 2.80286e-014
rhumerus -72.5767 1.08217 -86.3697
rradius 87.5472
rwrist -17.3703
rhand -32.1563 9.77782
rfingers 7.12502
rthumb -5.39965 -20.1334
lclavicle 5.60076e-014 2.80286e-014
lhumerus -39.9969 -19.913 99.2353
lradius 128.474
lwrist 15.6436
lhand -16.0707 -10.7263
lfingers 7.12502
lthumb 10.1319 19.0097
rfemur -58.2203 -10.8486 23.0675
rtibia 40.1566
rfoot 9.97692 -7.27102
rtoes -15.6069
lfemur -0.873857 -13.2551 -26.131
ltibia 61.0142
lfoot 7.14548 -10.2375
ltoes -2.3776
97
root -7.59891 16.2389 4.44656 -5.48532 -40.9355 18.2448
lowerback 15.6211 -2.35629 -8.20109
upperback 2.61476 -4.76323 -3.226
thorax -5.56665 -2.23991 2.1323
lowerneck -18.0834 -0.671135 -4.20996
upperneck 9.64854 -0.289206 2.93626
head 5.86534 -0.0649767 1.5871
rclavicle -9.15403e-014 3.45885e-014
rhumerus -72.4731 0.83165 -86.0223
rradius 87.6636
rwrist -16.7581
rhand -32.1187 9.83555
rfingers 7.12502
rthumb -5.36336 -20.0766
lclavicle -9.15403e-014 3.45885e-014
lhumerus -40.7556 -19.5837 99.8188
lradius 127.879
lwrist 15.0712
lhand -15.9818 -10.9055
lfingers 7.12502
lthumb 10.2177 18.8263
rfemur -57.3103 -11.0714 22.7453
rtibia 38.6607
rfoot 10.9542 -6.44553
rtoes -15.0964
lfemur -0.815497 -13.6488 -26.723
ltibia 63.8004
lfoot 5.83194 -7.29967
ltoes -3.38668
98
root -8.00492 16.1835 4.96498 -6.21113 -41.0396 18.3156
lowerback 15.55 -2.32699 -8.23897
upperback 2.63526 -4.7135 -3.11257
thorax -5.49686 -2.21774 2.25904
lowerneck -17.8488 -0.658608 -4.26396
upperneck 9.87138 -0.232326 2.66334
head 5.8961 -0.0642134 1.51464
rclavicle -5.96354e-014 -6.75868e-015
rhumerus -72.1745 0.629183 -85.7229
rradius 87.719
rwrist -16.161
rhand -32.0791 9.93237
rfingers 7.12502
rthumb -5.32511 -19.9807
lclavicle -5.96354e-014 -6.75868e-015
lhumerus -41.5423 -19.0734 100.423
lradius 126.926
lwrist 14.1458
lhand -15.9922 -11.0971
lfingers 7.12502
lthumb 10.2077 18.6352
rfemur -56.4963 -11.3949 22.7467
rtibia 38.2719
rfoot 10.9822 -5.36238
rtoes -13.156
lfemur -1.20928 -13.6859 -26.9373
ltibia 66.9405
lfoot 4.73339 -4.61565
ltoes -3.81298
99
root -8.40953 16.1266 5.47423 -6.7935 -41.2184 18.1549
lowerback 15.5556 -2.24471 -8.1912
upperback 2.63698 -4.58393 -2.92695
thorax -5.49753 -2.15356 2.40557
lowerneck -17.5897 -0.679045 -4.32883
upperneck 10.068 -0.221348 2.41444
head 5.91628 -0.0844465 1.44686
rclavicle -3.62782e-014 2.3059e-014
rhumerus -71.6846 0.453694 -85.4902
rradius 87.7075
rwrist -15.6313
rhand -32.0398 10.0314
rfingers 7.12502
rthumb -5.28718 -19.8826
lclavicle -3.62782e-014 2.3059e-014
lhumerus -42.3439 -18.3988 101.001
lradius 125.651
lwrist 12.9389
lhand -16.0616 -11.2325
lfingers 7.12502
lthumb 10.1407 18.5032
rfemur -55.729 -11.7698 23.098
rtibia 38.9154
rfoot 10.0714 -4.13375
rtoes -9.87988
lfemur -2.0177 -13.3816 -26.7183
ltibia 70.3178
lfoot 3.74593 -2.45106
ltoes -3.43944
100
root -8.81203 16.0693 5.97142 -7.20545 -41.5023 17.7032
lowerback 15.6759 -2.10828 -8.02359
upperback 2.62609 -4.37025 -2.66406
thorax -5.58591 -2.04531 2.55911
lowerneck -17.3092 -0.72479 -4.38857
upperneck 10.227 -0.251339 2.19875
head 5.92238 -0.12162 1.38466
rclavicle 3.78685e-014 3.97569e-016
rhumerus -70.9976 0.289188 -85.3405
rradius 87.6071
rwrist -15.2078
rhand -31.9934 10.1035
rfingers 7.12502
rthumb -5.24237 -19.8116
lclavicle 3.78685e-014 3.97569e-016
lhumerus -43.1551 -17.6 101.534
lradius 124.065
lwrist 11.5833
lhand -16.3142 -11.3777
lfingers 7.12502
lthumb 9.89699 18.3697
rfemur -54.9408 -12.0798 23.7584
rtibia 40.444
rfoot 8.35686 -3.13697
rtoes -5.64718
lfemur -3.20884 -12.7927 -26.0148
ltibia 73.842
lfoot 2.73591 -0.901722
ltoes -2.46158
101
root -9.21087 16.0109 6.4554 -7.45372 -41.8923 16.9435
lowerback 15.9485 -1.92321 -7.70956
upperback 2.61136 -4.07773 -2.33375
thorax -5.77542 -1.89621 2.69563
lowerneck -17.0118 -0.791891 -4.42672
upperneck 10.3459 -0.320407 2.01287
head 5.91407 -0.174209 1.32462
rclavicle 1.0635e-014 2.98177e-014
rhumerus -70.1104 0.115175 -85.2846
rradius 87.3917
rwrist -14.9195
rhand -31.9387 10.1094
rfingers 7.12502
rthumb -5.18959 -19.8071
lclavicle 1.0635e-014 2.98177e-014
lhumerus -43.9486 -16.681 101.967
lradius 122.204
lwrist 10.2322
lhand -16.5725 -11.4702
lfingers 7.12502
lthumb 9.64781 18.2888
rfemur -53.9913 -12.1981 24.5987
rtibia 42.561
rfoot 6.05901 -2.716
rtoes -1.11207
lfemur -4.73154 -11.9723 -24.8391
ltibia 77.3985
lfoot 1.64735 0.0115627
ltoes -1.42473
102
root -9.60441 15.9493 6.92542 -7.508 -42.4137 15.827
lowerback 16.3838 -1.6886 -7.20126
upperback 2.60341 -3.69351 -1.93657
thorax -6.06356 -1.7023 2.78234
lowerneck -16.71 -0.87745 -4.43676
upperneck 10.4274 -0.42522 1.85445
head 5.89399 -0.24037 1.26541
rclavicle 1.32987e-013 -1.90833e-014
rhumerus -69.0074 -0.0981725 -85.3253
rradius 87.033
rwrist -14.8032
rhand -31.8659 10.0244
rfingers 7.12502
rthumb -5.11921 -19.8937
lclavicle 1.32987e-013 -1.90833e-014
lhumerus -44.716 -15.7167 102.308
lradius 120.101
lwrist 9.24411
lhand -16.9418 -11.4934
lfingers 7.12502
lthumb 9.29147 18.2818
rfemur -52.882 -12.0214 25.5861
rtibia 45.1698
rfoot 3.31873 -3.04372
rtoes 2.86081
lfemur -6.57187 -10.9487 -23.1768
ltibia 80.9741
lfoot 0.411019 0.381892
ltoes -0.645435
